<?xml version="1.0" encoding="UTF-8"?>
<svg width="200px" height="200px" viewBox="0 0 200 200" version="1.1" xmlns="http://www.w3.org/2000/svg" xmlns:xlink="http://www.w3.org/1999/xlink">
    <defs></defs>
    <g id="A" stroke="none" stroke-width="1" fill="none" fill-rule="evenodd">
        <g id="Logo-2-Copy-2" transform="translate(100.000000, 100.000000) rotate(-90.000000) translate(-100.000000, -100.000000) translate(11.000000, 0.000000)" fill="#FFFFFF" fill-rule="nonzero">
            <path d="M160.556774,70.7425806 L45.5445161,5.14709677 C45.1406452,4.91612903 44.7341935,4.69483871 44.3251613,4.48322581 C15.7380645,-10.3870968 -12.94,24.676129 6.66258065,50.2516129 L34.6032258,86.7025806 C34.6032258,86.7025806 90.563871,144.892903 45.5445161,195.38 C45.1406452,195.610968 44.7341935,195.832258 44.3251613,196.043871 C44.7329032,195.832258 45.1393548,195.610968 45.5445161,195.38 L160.55871,129.786452 C171.160722,123.738436 177.705462,112.469738 177.705062,100.263954 C177.704662,88.0581705 171.159183,76.7899008 160.556774,70.7425806 Z" id="Shape"></path>
            <path d="M51.683871,124.570323 C48.4012511,116.489767 44.1924853,108.817213 39.1419355,101.706452 C38.863705,106.107326 37.2831849,110.326088 34.6012903,113.826452 L6.66064516,150.277419 C-10.6251613,172.829677 9.63354839,202.729032 34.2664516,199.30129 L41.6696774,190.996129 L41.6232258,190.907097 L41.8554839,190.783226 C58.3090323,171.861935 61.6090323,149.592258 51.683871,124.570323 Z" id="Shape"></path>
        </g>
    </g>
</svg>
